<svg width="8" height="5" viewBox="0 0 8 5" fill="none" xmlns="http://www.w3.org/2000/svg">
<path d="M1.26516 0.734835C1.11872 0.588388 0.881281 0.588388 0.734835 0.734835C0.588388 0.881282 0.588388 1.11872 0.734835 1.26517L1.26516 0.734835ZM4 4L3.73484 4.26516C3.88128 4.41161 4.11872 4.41161 4.26517 4.26516L4 4ZM7.26516 1.26516C7.41161 1.11872 7.41161 0.88128 7.26516 0.734834C7.11872 0.588387 6.88128 0.588387 6.73484 0.734834L7.26516 1.26516ZM0.734835 1.26517L3.73484 4.26516L4.26517 3.73483L1.26516 0.734835L0.734835 1.26517ZM4.26517 4.26516L7.26516 1.26516L6.73484 0.734834L3.73484 3.73483L4.26517 4.26516Z" fill="white"/>
</svg>
