<svg width="14" height="8" viewBox="0 0 14 8" fill="none" xmlns="http://www.w3.org/2000/svg">
<path fill-rule="evenodd" clip-rule="evenodd" d="M0.5 4.04797C0.499995 3.66137 0.742503 3.34797 1.04166 3.34796L11.6234 3.34775L10.3506 1.69881C10.136 1.42943 9.79155 0.772657 10 0.495361C10.2084 0.218065 10.7854 0.23062 11 0.5L13.5859 3.34775C13.6909 3.47956 14 3.79203 14 3.9812C14 4.17037 13.6909 4.4197 13.5859 4.55151L11 7.52015C10.7854 7.78953 10.2084 7.76097 10 7.48368C9.79155 7.20638 10.136 6.615 10.3506 6.34562L11.6234 4.74774L1.04167 4.74796C0.74252 4.74796 0.500005 4.43457 0.5 4.04797Z" fill="black"/>
</svg>
