<svg width="15" height="8" viewBox="0 0 15 8" fill="none" xmlns="http://www.w3.org/2000/svg">
<path fill-rule="evenodd" clip-rule="evenodd" d="M14.25 3.95215C14.25 4.33875 14.0075 4.65216 13.7083 4.65216L3.12659 4.65238L4.39943 6.30131C4.614 6.57069 4.95845 7.22746 4.75 7.50476C4.54155 7.78206 3.96457 7.7695 3.75 7.50012L1.16406 4.65238C1.05907 4.52057 0.75 4.20809 0.75 4.01892C0.75 3.82975 1.05907 3.58042 1.16406 3.44861L3.75 0.479971C3.96457 0.210591 4.54155 0.239149 4.75 0.516446C4.95845 0.793742 4.614 1.38512 4.39943 1.6545L3.12664 3.25238L13.7083 3.25217C14.0075 3.25216 14.25 3.56556 14.25 3.95215Z" fill="black"/>
</svg>
