<svg width="36" height="36" viewBox="0 0 36 36" fill="none" xmlns="http://www.w3.org/2000/svg">
<path fill-rule="evenodd" clip-rule="evenodd" d="M30.6 7.2H5.4C4.40589 7.2 3.6 8.00589 3.6 9V30.6C3.6 31.5941 4.40589 32.4 5.4 32.4H30.6C31.5941 32.4 32.4 31.5941 32.4 30.6V9C32.4 8.00589 31.5941 7.2 30.6 7.2ZM5.4 3.6C2.41766 3.6 0 6.01766 0 9V30.6C0 33.5823 2.41766 36 5.4 36H30.6C33.5823 36 36 33.5823 36 30.6V9C36 6.01766 33.5823 3.6 30.6 3.6H5.4Z" fill="white"/>
<path fill-rule="evenodd" clip-rule="evenodd" d="M14.4 18C13.4059 18 12.6 18.8059 12.6 19.8C12.6 20.7941 13.4059 21.6 14.4 21.6H27C27.9941 21.6 28.8 20.7941 28.8 19.8C28.8 18.8059 27.9941 18 27 18H14.4ZM9 25.2C8.00589 25.2 7.2 26.0059 7.2 27C7.2 27.9941 8.00589 28.8 9 28.8H19.8C20.7941 28.8 21.6 27.9941 21.6 27C21.6 26.0059 20.7941 25.2 19.8 25.2H9Z" fill="white"/>
<path fill-rule="evenodd" clip-rule="evenodd" d="M9 0C8.00589 0 7.2 0.805888 7.2 1.8V9C7.2 9.99411 8.00589 10.8 9 10.8C9.99411 10.8 10.8 9.99411 10.8 9V1.8C10.8 0.805887 9.99411 0 9 0ZM27 0C26.0059 0 25.2 0.805888 25.2 1.8V9C25.2 9.99411 26.0059 10.8 27 10.8C27.9941 10.8 28.8 9.99411 28.8 9V1.8C28.8 0.805887 27.9941 0 27 0Z" fill="white"/>
</svg>
