<svg width="9" height="9" viewBox="0 0 9 9" fill="none" xmlns="http://www.w3.org/2000/svg">
<g clip-path="url(#clip0_3_1102)">
<path fill-rule="evenodd" clip-rule="evenodd" d="M4.5 0C4.70711 2.23517e-08 4.875 0.167893 4.875 0.375L4.875 7.71969L7.23484 5.35994C7.38129 5.21349 7.61872 5.2135 7.76517 5.35994C7.91161 5.50639 7.91161 5.74383 7.76516 5.89027L4.76516 8.89017C4.61871 9.03661 4.38128 9.03661 4.23484 8.89017L1.23484 5.89027C1.08839 5.74383 1.08839 5.50639 1.23483 5.35994C1.38127 5.2135 1.61871 5.21349 1.76516 5.35994L4.125 7.71969L4.125 0.375C4.125 0.167893 4.29289 0 4.5 0Z" fill="white"/>
</g>
<defs>
<clipPath id="clip0_3_1102">
<rect width="9" height="9" fill="white"/>
</clipPath>
</defs>
</svg>
