<svg width="100" height="23" viewBox="0 0 100 23" fill="none" xmlns="http://www.w3.org/2000/svg">
<path d="M88.769 16.2927C84.1164 15.7409 79.463 15.195 74.809 14.6548C72.9743 14.4687 70.4866 14.1347 68.3194 13.8975C69.7531 14.6526 71.2325 15.3025 73.5041 16.3885C75.1616 17.3763 78.9513 18.1067 78.2931 20.6618C77.6561 22.3025 75.5635 22.0554 74.1183 22.1646C71.8331 22.2388 69.5469 22.2713 67.2607 22.2988C57.413 22.4556 47.5681 21.9498 37.7559 21.142C28.2215 20.3101 18.7265 19.0982 9.23799 17.8599C7.23937 17.6103 5.25004 17.2825 3.24557 17.0829C2.03653 16.9965 0.33975 17.1248 0.412999 15.4457C0.575377 14.0421 2.04947 14.152 3.11437 14.285C5.50334 14.4982 7.87034 14.9031 10.2506 15.1932C16.5714 16.0048 22.8915 16.8319 29.2283 17.5102C40.5672 18.7828 51.9639 19.4729 63.3735 19.5776C67.1178 19.5163 70.5509 19.5899 73.7477 19.4249C72.7986 18.9426 71.7303 18.4569 70.468 17.8678C68.6939 17.0376 66.9351 16.1726 65.223 15.2202C64.1396 14.5653 62.4173 13.8785 62.518 12.374C62.6237 11.8699 62.923 11.4274 63.3515 11.1417C63.78 10.8559 64.3035 10.7496 64.8095 10.8458C72.3766 11.3256 81.4282 12.7636 88.8745 13.5241C85.7918 12.0387 82.1847 10.4598 79.1407 9.08885C75.7828 7.39741 71.859 6.34568 69.1384 3.65803C67.9774 2.16865 69.0817 0.431904 70.8268 0.263605C80.0365 -0.0170945 89.2539 0.444446 98.3895 1.64375C98.6625 1.67872 98.9193 1.79289 99.1282 1.97217C99.3371 2.15144 99.489 2.38797 99.565 2.65254C99.641 2.91712 99.6378 3.19817 99.5559 3.46098C99.474 3.72379 99.317 3.95686 99.1041 4.13143C98.8171 4.35573 98.4543 4.46002 98.0919 4.42236C95.3999 4.0917 92.7099 3.73662 90.0031 3.54853C85.0357 3.21701 80.0608 2.98987 75.0829 2.90897C74.096 2.92972 73.3072 2.88861 72.6354 2.89424C76.7716 5.25579 83.5737 7.84797 88.7197 10.3903C90.3458 11.1625 91.9782 11.9249 93.5569 12.7914C94.4194 13.3103 95.6076 13.7294 95.8201 14.8363C95.7815 18.0923 90.8095 16.261 88.769 16.2927Z" fill="#074B42"/>
</svg>
