<svg width="95" height="18" viewBox="0 0 95 18" fill="none" xmlns="http://www.w3.org/2000/svg">
<path d="M2.31892 14V11.5818H5.61825C6.20567 11.5818 6.62339 11.4708 6.87141 11.2489C7.12596 11.027 7.25323 10.6941 7.25323 10.2503V10.0839C7.25323 9.64005 7.12596 9.30718 6.87141 9.08526C6.62339 8.85682 6.19588 8.7426 5.58888 8.7426H2.26996V6.51041H5.51056C6.07839 6.51041 6.4798 6.39946 6.71476 6.17754C6.94973 5.95563 7.06722 5.63255 7.06722 5.2083V5.1104C7.06722 4.69268 6.94973 4.37939 6.71476 4.17053C6.4798 3.95514 6.07839 3.84745 5.51056 3.84745H2.26017V1.48798H5.83364C7.34787 1.48798 8.4346 1.74253 9.09381 2.25163C9.75302 2.7542 10.0826 3.49826 10.0826 4.48382V4.63067C10.0826 5.37474 9.88683 5.95236 9.49521 6.36356C9.11013 6.77475 8.50313 7.00646 7.67421 7.05867V7.16636C8.5945 7.29037 9.26677 7.6004 9.69102 8.09644C10.1153 8.59249 10.3274 9.2876 10.3274 10.1818V10.4461C10.3274 11.621 9.98146 12.5086 9.28962 13.1091C8.60429 13.703 7.50452 14 5.99028 14H2.31892ZM0.135676 14V1.48798H3.07277V14H0.135676ZM17.519 14L17.6071 11.5916L17.5386 11.4447V8.4391L17.519 8.04749C17.519 7.51229 17.3623 7.11741 17.049 6.86286C16.7358 6.60832 16.2103 6.48104 15.4728 6.48104C14.8266 6.48104 14.2131 6.56263 13.6322 6.7258C13.0513 6.88897 12.5031 7.07499 11.9875 7.28385L12.242 4.96354C12.5488 4.81995 12.8914 4.68615 13.27 4.56214C13.6551 4.4316 14.0793 4.32717 14.5427 4.24885C15.0061 4.17053 15.5022 4.13137 16.0309 4.13137C16.8728 4.13137 17.5777 4.22927 18.1456 4.42508C18.7134 4.62088 19.167 4.89827 19.5064 5.25725C19.8458 5.61623 20.0906 6.047 20.2407 6.54957C20.3908 7.04562 20.4659 7.59387 20.4659 8.19435V14H17.519ZM14.4546 14.2252C13.4952 14.2252 12.7674 13.9837 12.2714 13.5007C11.7753 13.0177 11.5273 12.3291 11.5273 11.4349V11.1706C11.5273 10.2242 11.8178 9.52583 12.3987 9.07547C12.9861 8.61859 13.9161 8.30857 15.1889 8.14539L17.7735 7.80273L17.9498 9.60415L15.6588 9.93702C15.1954 9.99576 14.8691 10.1035 14.6798 10.2601C14.4905 10.4167 14.3959 10.6485 14.3959 10.9552V11.0237C14.3959 11.3175 14.4905 11.5524 14.6798 11.7286C14.8691 11.8983 15.1726 11.9832 15.5903 11.9832C15.9558 11.9832 16.2691 11.9277 16.5302 11.8168C16.7978 11.7058 17.0164 11.5622 17.1861 11.386C17.3558 11.2032 17.4831 11.0009 17.5679 10.779L17.9889 11.993H17.4994C17.395 12.4107 17.2318 12.7893 17.0099 13.1287C16.7945 13.4681 16.4812 13.7357 16.07 13.9315C15.6588 14.1273 15.1204 14.2252 14.4546 14.2252ZM28.5202 14V8.3412C28.5202 7.98875 28.4745 7.68525 28.3832 7.4307C28.2918 7.16963 28.1384 6.97056 27.923 6.83349C27.7076 6.69643 27.4139 6.6279 27.0419 6.6279C26.7351 6.6279 26.4643 6.68337 26.2293 6.79433C25.9943 6.89876 25.7953 7.04562 25.6321 7.2349C25.4754 7.41765 25.358 7.62651 25.2796 7.86148L24.8195 6.46146H25.3286C25.433 6.02416 25.6027 5.63255 25.8377 5.28662C26.0792 4.9407 26.4088 4.66657 26.8265 4.46424C27.2442 4.25538 27.7729 4.15095 28.4125 4.15095C29.1305 4.15095 29.7179 4.29128 30.1748 4.57193C30.6317 4.84606 30.9678 5.25725 31.1832 5.80551C31.4051 6.35377 31.5161 7.03909 31.5161 7.86148V14H28.5202ZM22.3328 14V4.37612H25.309L25.2111 6.78454L25.3286 7.06846V14H22.3328ZM39.5521 14L36.7129 9.84891H35.9297V8.08665H36.7129L39.4738 4.37612H42.9102L39.2486 9.1538V8.58596L43.0472 14H39.5521ZM33.4233 14V1.067H36.3996V14H33.4233ZM44.0457 14V4.37612H47.0415V14H44.0457ZM45.5436 3.46563C44.9823 3.46563 44.5744 3.33835 44.3198 3.0838C44.0653 2.82273 43.938 2.47354 43.938 2.03624V1.96771C43.938 1.53041 44.0653 1.18448 44.3198 0.929936C44.5744 0.675388 44.9823 0.548113 45.5436 0.548113C46.0919 0.548113 46.4933 0.675388 46.7478 0.929936C47.0089 1.18448 47.1394 1.53041 47.1394 1.96771V2.03624C47.1394 2.48007 47.0089 2.82926 46.7478 3.0838C46.4933 3.33835 46.0919 3.46563 45.5436 3.46563ZM55.2332 14V8.3412C55.2332 7.98875 55.1876 7.68525 55.0962 7.4307C55.0048 7.16963 54.8514 6.97056 54.636 6.83349C54.4206 6.69643 54.1269 6.6279 53.7549 6.6279C53.4481 6.6279 53.1773 6.68337 52.9423 6.79433C52.7073 6.89876 52.5083 7.04562 52.3451 7.2349C52.1885 7.41765 52.071 7.62651 51.9927 7.86148L51.5325 6.46146H52.0416C52.146 6.02416 52.3157 5.63255 52.5507 5.28662C52.7922 4.9407 53.1218 4.66657 53.5395 4.46424C53.9572 4.25538 54.4859 4.15095 55.1256 4.15095C55.8435 4.15095 56.4309 4.29128 56.8878 4.57193C57.3447 4.84606 57.6808 5.25725 57.8962 5.80551C58.1181 6.35377 58.2291 7.03909 58.2291 7.86148V14H55.2332ZM49.0458 14V4.37612H52.022L51.9241 6.78454L52.0416 7.06846V14H49.0458ZM64.3951 11.0042C62.8483 11.0042 61.6865 10.717 60.9098 10.1426C60.1331 9.56825 59.7447 8.76218 59.7447 7.72441V7.59714C59.7447 6.89223 59.9014 6.29829 60.2147 5.8153C60.5345 5.32578 61.024 4.94723 61.6832 4.67962C62.3424 4.41202 63.1877 4.25211 64.2189 4.1999L69.3588 3.96493V6.07964L66.8036 6.01111V6.10901C67.2409 6.18081 67.5998 6.30482 67.8805 6.48104C68.1677 6.65074 68.3798 6.87592 68.5169 7.15657C68.6605 7.4307 68.7322 7.7701 68.7322 8.17477V8.2433C68.7322 9.13748 68.3765 9.8228 67.6651 10.2993C66.9602 10.7692 65.8702 11.0042 64.3951 11.0042ZM64.2483 15.5567H64.542C65.0119 15.5567 65.3905 15.5273 65.6777 15.4685C65.9714 15.4098 66.1868 15.3217 66.3238 15.2042C66.4609 15.0867 66.5294 14.9399 66.5294 14.7636V14.7441C66.5294 14.5156 66.4315 14.3525 66.2357 14.2545C66.0464 14.1566 65.7593 14.0914 65.3742 14.0587L62.535 13.7748L63.1909 13.7357C62.9951 13.7683 62.8254 13.8238 62.6818 13.9021C62.5448 13.9804 62.4338 14.0783 62.349 14.1958C62.2706 14.3133 62.2315 14.4569 62.2315 14.6266V14.6462C62.2315 14.842 62.3033 15.0084 62.4469 15.1455C62.5905 15.2825 62.8091 15.3837 63.1028 15.449C63.4031 15.5208 63.7849 15.5567 64.2483 15.5567ZM64.1014 17.7497C63.1355 17.7497 62.3098 17.6714 61.6245 17.5147C60.9457 17.3646 60.4301 17.1231 60.0776 16.7902C59.7252 16.4574 59.5489 16.0168 59.5489 15.4685V15.4294C59.5489 15.0574 59.6305 14.7441 59.7937 14.4895C59.9569 14.235 60.1918 14.0359 60.4986 13.8923C60.8054 13.7487 61.1643 13.6606 61.5755 13.628V13.5301C61.073 13.4387 60.6846 13.2788 60.4105 13.0503C60.1429 12.8219 60.0091 12.5021 60.0091 12.0909V12.0811C60.0091 11.7874 60.0744 11.5394 60.2049 11.337C60.342 11.1347 60.541 10.9813 60.8021 10.8769C61.0632 10.7659 61.383 10.7007 61.7615 10.6811V10.358L63.9742 10.9161L63.328 10.9063C63.0996 10.9063 62.9364 10.9356 62.8385 10.9944C62.7471 11.0531 62.7014 11.1412 62.7014 11.2587V11.2685C62.7014 11.4121 62.7765 11.5165 62.9266 11.5818C63.0832 11.6405 63.3345 11.6895 63.6804 11.7286L65.9616 11.993C67.0712 12.1235 67.8968 12.3977 68.4385 12.8154C68.9803 13.2331 69.2511 13.8793 69.2511 14.7539V14.8126C69.2511 15.4783 69.0619 16.0266 68.6833 16.4574C68.3113 16.8947 67.7695 17.2177 67.0581 17.4266C66.3532 17.642 65.4917 17.7497 64.4735 17.7497H64.1014ZM64.2972 8.98736C64.6823 8.98736 64.9989 8.93841 65.2469 8.84051C65.5014 8.73608 65.6907 8.58596 65.8147 8.39015C65.9453 8.18782 66.0105 7.94632 66.0105 7.66567V7.57756C66.0105 7.2969 65.9485 7.05867 65.8245 6.86286C65.7005 6.66706 65.5112 6.5202 65.2567 6.4223C65.0087 6.31787 64.6889 6.26565 64.2972 6.26565H64.2874C63.8893 6.26565 63.563 6.31787 63.3084 6.4223C63.0539 6.52673 62.8646 6.67685 62.7406 6.87265C62.6231 7.06846 62.5644 7.30669 62.5644 7.58735V7.66567C62.5644 7.94632 62.6264 8.18782 62.7504 8.39015C62.8809 8.58596 63.0734 8.73608 63.328 8.84051C63.5825 8.93841 63.9056 8.98736 64.2972 8.98736ZM75.6762 14.2741C73.8943 14.2741 72.5661 13.8042 71.6915 12.8643C70.8235 11.9179 70.3894 10.5701 70.3894 8.82093V6.59853C70.3894 4.88196 70.8267 3.557 71.7013 2.62366C72.5759 1.68379 73.8943 1.21385 75.6566 1.21385C76.1265 1.21385 76.5606 1.24975 76.9587 1.32155C77.3569 1.39334 77.7191 1.49125 78.0454 1.61526C78.3718 1.73274 78.659 1.86654 78.907 2.01666L79.1322 4.64046C78.7471 4.43813 78.3228 4.2619 77.8594 4.11179C77.4025 3.95514 76.8706 3.87682 76.2636 3.87682C75.3303 3.87682 74.6384 4.1281 74.1881 4.63067C73.7442 5.12672 73.5223 5.82509 73.5223 6.7258V8.70344C73.5223 9.59762 73.7475 10.296 74.1978 10.7986C74.6547 11.3011 75.3825 11.5524 76.3811 11.5524C76.9685 11.5524 77.4939 11.4741 77.9573 11.3175C78.4207 11.1608 78.845 10.9715 79.2301 10.7496L79.0049 13.4322C78.7569 13.5823 78.4664 13.7226 78.1335 13.8531C77.8007 13.9772 77.4286 14.0783 77.0175 14.1566C76.6128 14.235 76.1657 14.2741 75.6762 14.2741ZM84.9915 14.2741C83.4381 14.2741 82.2633 13.889 81.467 13.1189C80.6772 12.3422 80.2824 11.2522 80.2824 9.84891V8.58596C80.2824 7.1631 80.6805 6.06006 81.4768 5.27683C82.2731 4.48708 83.4446 4.09221 84.9915 4.09221C86.5384 4.09221 87.7067 4.48708 88.4964 5.27683C89.2927 6.06006 89.6909 7.1631 89.6909 8.58596V9.84891C89.6909 11.2522 89.296 12.3422 88.5062 13.1189C87.7165 13.889 86.5449 14.2741 84.9915 14.2741ZM84.9915 11.9147C85.5463 11.9147 85.9673 11.7482 86.2545 11.4154C86.5482 11.076 86.695 10.5962 86.695 9.97618V8.45868C86.695 7.806 86.5482 7.30995 86.2545 6.97056C85.9673 6.63116 85.5463 6.46146 84.9915 6.46146C84.4367 6.46146 84.0125 6.63116 83.7188 6.97056C83.4316 7.30995 83.288 7.806 83.288 8.45868V9.97618C83.288 10.5962 83.4316 11.076 83.7188 11.4154C84.0125 11.7482 84.4367 11.9147 84.9915 11.9147ZM92.4259 14.2643C91.8646 14.2643 91.4501 14.1207 91.1825 13.8336C90.9214 13.5464 90.7909 13.145 90.7909 12.6294V12.5217C90.7909 12.0126 90.9214 11.6112 91.1825 11.3175C91.4501 11.0237 91.8646 10.8769 92.4259 10.8769C92.9741 10.8769 93.3821 11.0237 93.6497 11.3175C93.9173 11.6112 94.0511 12.0126 94.0511 12.5217V12.6294C94.0511 13.145 93.9173 13.5464 93.6497 13.8336C93.3821 14.1207 92.9741 14.2643 92.4259 14.2643Z" fill="white"/>
</svg>
