<svg width="157" height="36" viewBox="0 0 157 36" fill="none" xmlns="http://www.w3.org/2000/svg">
<path d="M157 21.3186C155.336 21.1876 152.912 20.8481 150.936 20.7465C119.072 19.4355 87.1578 21.0496 55.5804 25.5692C40.1508 27.8188 20.1641 32.0228 3.40021 35.7068C2.5916 36.0082 1.71718 36.0789 0.871825 35.9112C0.698936 35.8395 0.541895 35.7334 0.409926 35.5992C0.277957 35.465 0.173722 35.3054 0.103344 35.1297C0.0329657 34.954 -0.00213608 34.7658 0.000100537 34.5761C0.00233715 34.3865 0.041867 34.1992 0.116368 34.0252C0.438473 33.1836 1.42976 33.0591 2.17071 32.7393C3.55036 32.2406 4.94714 31.7934 6.33819 31.3277C22.6824 25.7023 39.1893 20.5379 56.1441 17.1619C71.6672 13.706 87.4347 11.6743 103.15 9.37356C98.7422 9.23431 94.3317 9.1757 89.9233 9.25042C78.3895 9.51878 66.888 10.6024 55.5023 12.4933C53.2929 13.0732 51.0859 13.6618 48.8814 14.2591C44.6472 15.3916 40.3981 16.4653 36.1539 17.559C33.515 18.0444 30.8499 19.3831 28.15 19.0342C26.3898 18.4038 26.9025 16.4768 28.2911 15.775C32.0872 13.9627 36.2831 13.1402 40.3443 12.1542C45.4743 11.0379 50.6343 10.0643 55.8241 9.23338C60.1693 8.09291 64.5217 6.98308 68.8935 5.96382C60.4044 6.88563 51.99 8.00474 43.6961 9.42191C62.175 2.37401 82.0558 1.25732 101.571 0.102847C102.629 -0.0256084 103.699 -0.0337605 104.759 0.0785415C104.981 0.133708 105.189 0.237149 105.369 0.381761C105.548 0.526373 105.695 0.70873 105.799 0.916312C105.902 1.12389 105.96 1.35178 105.969 1.58433C105.978 1.81688 105.937 2.04858 105.849 2.26352C105.166 3.75255 103.14 3.2308 101.816 3.56093C96.8342 4.127 93.9558 4.50553 89.2898 5.20431C86.9837 5.5541 84.6868 5.95244 82.394 6.37073C92.8622 5.8232 104.67 5.80192 113.507 6.94657C113.724 6.9909 113.929 7.07883 114.111 7.20517C114.294 7.33151 114.449 7.49369 114.569 7.68212C114.688 7.87056 114.769 8.08142 114.807 8.30226C114.845 8.5231 114.839 8.74943 114.79 8.96787C114.303 10.3506 112.591 10.495 111.36 10.7754C110.021 11.0033 108.024 11.3892 105.803 11.7403C89.783 14.0955 75.2375 15.7382 59.1849 19.2079C47.308 21.5637 35.564 24.5645 24.0034 28.1973C31.3208 26.685 38.6565 25.2699 46.0105 23.952C66.6163 20.5451 87.4074 18.4171 108.268 17.5797C123.292 17.0361 138.552 16.4245 153.244 20.2563C154.504 20.5831 155.749 20.9623 157 21.3186Z" fill="#074B42"/>
</svg>
