<svg width="8" height="5" viewBox="0 0 8 5" fill="none" xmlns="http://www.w3.org/2000/svg">
<path d="M6.73483 0.734835C6.88128 0.588388 7.11872 0.588388 7.26517 0.734835C7.41161 0.881282 7.41161 1.11872 7.26517 1.26517L6.73483 0.734835ZM4 4L4.26517 4.26517C4.11872 4.41161 3.88128 4.41161 3.73484 4.26517L4 4ZM0.734835 1.26517C0.588388 1.11872 0.588388 0.881282 0.734835 0.734836C0.881281 0.588389 1.11872 0.588389 1.26516 0.734835L0.734835 1.26517ZM7.26517 1.26517L4.26517 4.26517L3.73484 3.73484L6.73483 0.734835L7.26517 1.26517ZM3.73484 4.26517L0.734835 1.26517L1.26516 0.734835L4.26517 3.73484L3.73484 4.26517Z" fill="white"/>
</svg>
