<svg width="13" height="13" viewBox="0 0 13 13" fill="none" xmlns="http://www.w3.org/2000/svg">
<path fill-rule="evenodd" clip-rule="evenodd" d="M6.5 7.04171C4.40592 7.04171 2.70833 8.73929 2.70833 10.8334V11.9167C2.70833 12.2159 2.46582 12.4584 2.16667 12.4584C1.86751 12.4584 1.625 12.2159 1.625 11.9167V10.8334C1.625 8.14099 3.80761 5.95837 6.5 5.95837C9.19239 5.95837 11.375 8.14099 11.375 10.8334V11.9167C11.375 12.2159 11.1325 12.4584 10.8333 12.4584C10.5342 12.4584 10.2917 12.2159 10.2917 11.9167V10.8334C10.2917 8.73929 8.59408 7.04171 6.5 7.04171Z" fill="#F6F5EE"/>
<path fill-rule="evenodd" clip-rule="evenodd" d="M6.5 5.95829C7.69662 5.95829 8.66667 4.98824 8.66667 3.79163C8.66667 2.59501 7.69662 1.62496 6.5 1.62496C5.30338 1.62496 4.33333 2.59501 4.33333 3.79163C4.33333 4.98824 5.30338 5.95829 6.5 5.95829ZM6.5 7.04163C8.29493 7.04163 9.75 5.58655 9.75 3.79163C9.75 1.9967 8.29493 0.541626 6.5 0.541626C4.70507 0.541626 3.25 1.9967 3.25 3.79163C3.25 5.58655 4.70507 7.04163 6.5 7.04163Z" fill="#F6F5EE"/>
</svg>
