<svg width="13" height="13" viewBox="0 0 13 13" fill="none" xmlns="http://www.w3.org/2000/svg">
<g clip-path="url(#clip0_3_989)">
<path fill-rule="evenodd" clip-rule="evenodd" d="M1.08333 6.5C1.08333 3.50846 3.50846 1.08333 6.5 1.08333C9.49154 1.08333 11.9167 3.50846 11.9167 6.5C11.9167 9.49154 9.49154 11.9167 6.5 11.9167C3.50846 11.9167 1.08333 9.49154 1.08333 6.5ZM6.5 0C2.91015 0 0 2.91015 0 6.5C0 10.0899 2.91015 13 6.5 13C10.0899 13 13 10.0899 13 6.5C13 2.91015 10.0899 0 6.5 0ZM5.71713 3.88264C5.55092 3.77183 5.3372 3.7615 5.16108 3.85576C4.98495 3.95002 4.875 4.13357 4.875 4.33333V8.66667C4.875 8.86643 4.98495 9.04998 5.16108 9.14424C5.3372 9.2385 5.55092 9.22817 5.71713 9.11736L8.96713 6.95069C9.11782 6.85023 9.20833 6.68111 9.20833 6.5C9.20833 6.31889 9.11782 6.14977 8.96713 6.04931L5.71713 3.88264ZM7.69016 6.5L5.95833 7.65455V5.34545L7.69016 6.5Z" fill="white"/>
</g>
<defs>
<clipPath id="clip0_3_989">
<rect width="13" height="13" fill="white"/>
</clipPath>
</defs>
</svg>
