<svg width="17" height="17" viewBox="0 0 17 17" fill="none" xmlns="http://www.w3.org/2000/svg">
<g clip-path="url(#clip0_3_1420)">
<path fill-rule="evenodd" clip-rule="evenodd" d="M1.375 8.25049C1.375 4.45353 4.45304 1.37549 8.25 1.37549C12.047 1.37549 15.125 4.45353 15.125 8.25049C15.125 12.0474 12.047 15.1255 8.25 15.1255C4.45304 15.1255 1.375 12.0474 1.375 8.25049ZM8.25 0.000488281C3.69365 0.000488281 0 3.69414 0 8.25049C0 12.8068 3.69365 16.5005 8.25 16.5005C12.8063 16.5005 16.5 12.8068 16.5 8.25049C16.5 3.69414 12.8063 0.000488281 8.25 0.000488281ZM5.81935 5.81988C5.55087 6.08836 5.55087 6.52366 5.81935 6.79215L7.27776 8.25056L5.81925 9.70906C5.55077 9.97755 5.55077 10.4129 5.81925 10.6813C6.08774 10.9498 6.52304 10.9498 6.79152 10.6813L8.25003 9.22283L9.70864 10.6814C9.97713 10.9499 10.4124 10.9499 10.6809 10.6814C10.9494 10.413 10.9494 9.97765 10.6809 9.70917L9.2223 8.25056L10.6808 6.79204C10.9493 6.52356 10.9493 6.08826 10.6808 5.81977C10.4123 5.55129 9.97703 5.55129 9.70854 5.81977L8.25003 7.27828L6.79162 5.81988C6.52314 5.55139 6.08784 5.55139 5.81935 5.81988Z" fill="#818685"/>
</g>
<defs>
<clipPath id="clip0_3_1420">
<rect width="16.5" height="16.5" fill="white" transform="translate(0 0.000488281)"/>
</clipPath>
</defs>
</svg>
