<svg width="17" height="17" viewBox="0 0 17 17" fill="none" xmlns="http://www.w3.org/2000/svg">
<g clip-path="url(#clip0_3_1412)">
<path fill-rule="evenodd" clip-rule="evenodd" d="M1.375 8.25049C1.375 4.45353 4.45304 1.37549 8.25 1.37549C12.047 1.37549 15.125 4.45353 15.125 8.25049C15.125 12.0474 12.047 15.1255 8.25 15.1255C4.45304 15.1255 1.375 12.0474 1.375 8.25049ZM8.25 0.000488281C3.69365 0.000488281 0 3.69414 0 8.25049C0 12.8068 3.69365 16.5005 8.25 16.5005C12.8063 16.5005 16.5 12.8068 16.5 8.25049C16.5 3.69414 12.8063 0.000488281 8.25 0.000488281ZM11.5279 6.4566C11.7711 6.16508 11.732 5.73154 11.4405 5.48826C11.149 5.24499 10.7154 5.2841 10.4721 5.57563L6.76356 10.0197L5.28684 8.61221C5.01199 8.35024 4.57682 8.36068 4.31485 8.63552C4.05288 8.91037 4.06331 9.34555 4.33816 9.60752L6.34651 11.5218C6.4842 11.653 6.6701 11.7213 6.86 11.7105C7.0499 11.6997 7.22683 11.6107 7.3487 11.4646L11.5279 6.4566Z" fill="#fff"/>
</g>
<defs>
<clipPath id="clip0_3_1412">
<rect width="16.5" height="16.5" fill="white" transform="translate(0 0.000488281)"/>
</clipPath>
</defs>
</svg>
