<svg width="64" height="11" viewBox="0 0 64 11" fill="none" xmlns="http://www.w3.org/2000/svg">
<path d="M0.0153098 3.86429C0.0520598 3.75114 0.149852 3.6687 0.26756 3.6516L3.57427 3.17108L5.0531 0.174676C5.10575 0.0680092 5.21437 0.000488281 5.33333 0.000488281C5.45227 0.000488281 5.56091 0.0680301 5.61356 0.174676L7.09248 3.1711L10.3991 3.6516C10.5168 3.6687 10.6146 3.75116 10.6514 3.86429C10.6881 3.97741 10.6575 4.1016 10.5723 4.18462L8.17964 6.51702L8.74439 9.81042C8.7645 9.92765 8.71629 10.0461 8.62006 10.116C8.52385 10.1859 8.39631 10.1952 8.29096 10.1398L5.33335 8.58492L2.37583 10.1399C2.3301 10.1639 2.28019 10.1758 2.23044 10.1758C2.16564 10.1758 2.10114 10.1556 2.04673 10.1161C1.9505 10.0461 1.90229 9.92767 1.92239 9.81042L2.48731 6.51702L0.0943929 4.18464C0.00920541 4.1016 -0.021461 3.97741 0.0153098 3.86429ZM3.04121 6.18412C3.11487 6.25591 3.1485 6.35937 3.13108 6.46075L2.64544 9.29196L5.18789 7.95525C5.27894 7.90739 5.38771 7.90739 5.47875 7.95525L8.02135 9.29198L7.53585 6.46073C7.51848 6.35935 7.55208 6.25593 7.62571 6.18414L9.6826 4.17906L6.84 3.76595C6.73821 3.75116 6.65025 3.68724 6.60471 3.59501L5.33335 1.01905L4.06204 3.59499C4.0165 3.68722 3.92854 3.75116 3.82675 3.76595L0.984101 4.17904L3.04121 6.18412Z" fill="#074B42"/>
<path d="M3.78643 3.28238L4.96648 1.2173C5.12627 0.937669 5.53121 0.942772 5.6839 1.22634L6.68332 3.08242C6.73805 3.18405 6.83306 3.25793 6.94504 3.28592L9.4172 3.90396C9.71066 3.97732 9.82651 4.33223 9.63286 4.56461L8.11402 6.38722C8.04129 6.47449 8.00801 6.58802 8.0221 6.70074L8.3182 9.06953C8.35822 9.38971 8.03001 9.62864 7.73762 9.49218L5.50683 8.45115C5.39686 8.39983 5.26981 8.39983 5.15984 8.45115L2.98036 9.46824C2.67768 9.6095 2.34208 9.34917 2.40363 9.02087L2.83191 6.73672C2.85687 6.60362 2.81454 6.46677 2.71878 6.37102L0.960234 4.61247C0.72695 4.37919 0.850462 3.97994 1.17472 3.91915L3.50584 3.48206C3.62413 3.45988 3.72672 3.38687 3.78643 3.28238Z" fill="#074B42"/>
<path d="M13.3451 3.86429C13.3819 3.75114 13.4797 3.6687 13.5974 3.6516L16.9041 3.17108L18.3829 0.174676C18.4356 0.0680092 18.5442 0.000488281 18.6632 0.000488281C18.7821 0.000488281 18.8907 0.0680301 18.9434 0.174676L20.4223 3.1711L23.729 3.6516C23.8467 3.6687 23.9445 3.75116 23.9812 3.86429C24.018 3.97741 23.9873 4.1016 23.9021 4.18462L21.5095 6.51702L22.0742 9.81042C22.0943 9.92765 22.0461 10.0461 21.9499 10.116C21.8537 10.1859 21.7261 10.1952 21.6208 10.1398L18.6632 8.58492L15.7057 10.1399C15.6599 10.1639 15.61 10.1758 15.5603 10.1758C15.4955 10.1758 15.431 10.1556 15.3766 10.1161C15.2803 10.0461 15.2321 9.92767 15.2522 9.81042L15.8171 6.51702L13.4242 4.18464C13.339 4.1016 13.3084 3.97741 13.3451 3.86429ZM16.371 6.18412C16.4447 6.25591 16.4783 6.35937 16.4609 6.46075L15.9753 9.29196L18.5177 7.95525C18.6088 7.90739 18.7175 7.90739 18.8086 7.95525L21.3512 9.29198L20.8657 6.46073C20.8483 6.35935 20.8819 6.25593 20.9555 6.18414L23.0124 4.17906L20.1698 3.76595C20.068 3.75116 19.9801 3.68724 19.9345 3.59501L18.6632 1.01905L17.3919 3.59499C17.3463 3.68722 17.2584 3.75116 17.1566 3.76595L14.3139 4.17904L16.371 6.18412Z" fill="#074B42"/>
<path d="M17.1163 3.28238L18.2963 1.2173C18.4561 0.937669 18.861 0.942772 19.0137 1.22634L20.0132 3.08242C20.0679 3.18405 20.1629 3.25793 20.2749 3.28592L22.747 3.90396C23.0405 3.97732 23.1563 4.33223 22.9627 4.56461L21.4439 6.38722C21.3711 6.47449 21.3378 6.58802 21.3519 6.70074L21.648 9.06953C21.6881 9.38971 21.3598 9.62864 21.0675 9.49218L18.8367 8.45115C18.7267 8.39983 18.5996 8.39983 18.4897 8.45115L16.3102 9.46824C16.0075 9.6095 15.6719 9.34917 15.7335 9.02087L16.1617 6.73672C16.1867 6.60362 16.1444 6.46677 16.0486 6.37102L14.2901 4.61247C14.0568 4.37919 14.1803 3.97994 14.5046 3.91915L16.8357 3.48206C16.954 3.45988 17.0566 3.38687 17.1163 3.28238Z" fill="#074B42"/>
<path d="M26.6786 3.86429C26.7154 3.75114 26.8132 3.6687 26.9309 3.6516L30.2376 3.17108L31.7164 0.174676C31.7691 0.0680092 31.8777 0.000488281 31.9967 0.000488281C32.1156 0.000488281 32.2242 0.0680301 32.2769 0.174676L33.7558 3.1711L37.0625 3.6516C37.1802 3.6687 37.278 3.75116 37.3147 3.86429C37.3515 3.97741 37.3208 4.1016 37.2356 4.18462L34.843 6.51702L35.4077 9.81042C35.4278 9.92765 35.3796 10.0461 35.2834 10.116C35.1872 10.1859 35.0596 10.1952 34.9543 10.1398L31.9967 8.58492L29.0392 10.1399C28.9934 10.1639 28.9435 10.1758 28.8938 10.1758C28.829 10.1758 28.7645 10.1556 28.7101 10.1161C28.6138 10.0461 28.5656 9.92767 28.5857 9.81042L29.1506 6.51702L26.7577 4.18464C26.6725 4.1016 26.6419 3.97741 26.6786 3.86429ZM29.7045 6.18412C29.7782 6.25591 29.8118 6.35937 29.7944 6.46075L29.3088 9.29196L31.8512 7.95525C31.9423 7.90739 32.051 7.90739 32.1421 7.95525L34.6847 9.29198L34.1992 6.46073C34.1818 6.35935 34.2154 6.25593 34.289 6.18414L36.3459 4.17906L33.5033 3.76595C33.4015 3.75116 33.3136 3.68724 33.268 3.59501L31.9967 1.01905L30.7254 3.59499C30.6798 3.68722 30.5919 3.75116 30.4901 3.76595L27.6474 4.17904L29.7045 6.18412Z" fill="#074B42"/>
<path d="M30.4498 3.28238L31.6298 1.2173C31.7896 0.937669 32.1945 0.942772 32.3472 1.22634L33.3467 3.08242C33.4014 3.18405 33.4964 3.25793 33.6084 3.28592L36.0805 3.90396C36.374 3.97732 36.4898 4.33223 36.2962 4.56461L34.7774 6.38722C34.7046 6.47449 34.6713 6.58802 34.6854 6.70074L34.9815 9.06953C35.0216 9.38971 34.6933 9.62864 34.4009 9.49218L32.1702 8.45115C32.0602 8.39983 31.9331 8.39983 31.8232 8.45115L29.6437 9.46824C29.341 9.6095 29.0054 9.34917 29.067 9.02087L29.4952 6.73672C29.5202 6.60362 29.4779 6.46677 29.3821 6.37102L27.6236 4.61247C27.3903 4.37919 27.5138 3.97994 27.8381 3.91915L30.1692 3.48206C30.2875 3.45988 30.3901 3.38687 30.4498 3.28238Z" fill="#074B42"/>
<path d="M40.0153 3.86429C40.0521 3.75114 40.1499 3.6687 40.2676 3.6516L43.5743 3.17108L45.0531 0.174676C45.1057 0.0680092 45.2144 0.000488281 45.3333 0.000488281C45.4523 0.000488281 45.5609 0.0680301 45.6136 0.174676L47.0925 3.1711L50.3991 3.6516C50.5168 3.6687 50.6146 3.75116 50.6514 3.86429C50.6881 3.97741 50.6575 4.1016 50.5723 4.18462L48.1796 6.51702L48.7444 9.81042C48.7645 9.92765 48.7163 10.0461 48.6201 10.116C48.5239 10.1859 48.3963 10.1952 48.291 10.1398L45.3334 8.58492L42.3758 10.1399C42.3301 10.1639 42.2802 10.1758 42.2304 10.1758C42.1656 10.1758 42.1011 10.1556 42.0467 10.1161C41.9505 10.0461 41.9023 9.92767 41.9224 9.81042L42.4873 6.51702L40.0944 4.18464C40.0092 4.1016 39.9785 3.97741 40.0153 3.86429ZM43.0412 6.18412C43.1149 6.25591 43.1485 6.35937 43.1311 6.46075L42.6454 9.29196L45.1879 7.95525C45.2789 7.90739 45.3877 7.90739 45.4787 7.95525L48.0214 9.29198L47.5359 6.46073C47.5185 6.35935 47.5521 6.25593 47.6257 6.18414L49.6826 4.17906L46.84 3.76595C46.7382 3.75116 46.6502 3.68724 46.6047 3.59501L45.3334 1.01905L44.062 3.59499C44.0165 3.68722 43.9285 3.75116 43.8267 3.76595L40.9841 4.17904L43.0412 6.18412Z" fill="#074B42"/>
<path d="M43.7864 3.28238L44.9665 1.2173C45.1263 0.937669 45.5312 0.942772 45.6839 1.22634L46.6833 3.08242C46.738 3.18405 46.8331 3.25793 46.945 3.28592L49.4172 3.90396C49.7107 3.97732 49.8265 4.33223 49.6329 4.56461L48.114 6.38722C48.0413 6.47449 48.008 6.58802 48.0221 6.70074L48.3182 9.06953C48.3582 9.38971 48.03 9.62864 47.7376 9.49218L45.5068 8.45115C45.3969 8.39983 45.2698 8.39983 45.1598 8.45115L42.9804 9.46824C42.6777 9.6095 42.3421 9.34917 42.4036 9.02087L42.8319 6.73672C42.8569 6.60362 42.8145 6.46677 42.7188 6.37102L40.9602 4.61247C40.7269 4.37919 40.8505 3.97994 41.1747 3.91915L43.5058 3.48206C43.6241 3.45988 43.7267 3.38687 43.7864 3.28238Z" fill="#074B42"/>
<path d="M53.3488 3.86428C53.3856 3.75114 53.4833 3.6687 53.6011 3.6516L56.9078 3.17108L58.3866 0.174676C58.4392 0.0680092 58.5479 0.000488281 58.6668 0.000488281C58.7858 0.000488281 58.8944 0.0680301 58.9471 0.174676L60.426 3.1711L63.7326 3.6516C63.8503 3.6687 63.9481 3.75116 63.9849 3.86428C64.0216 3.97741 63.991 4.1016 63.9058 4.18462L61.5131 6.51702L62.0779 9.81042C62.098 9.92765 62.0498 10.0461 61.9536 10.116C61.8573 10.1859 61.7298 10.1952 61.6245 10.1398L58.6668 8.58492L55.7093 10.1399C55.6636 10.1639 55.6137 10.1758 55.5639 10.1758C55.4991 10.1758 55.4346 10.1556 55.3802 10.1161C55.284 10.0461 55.2358 9.92767 55.2559 9.81042L55.8208 6.51702L53.4279 4.18464C53.3427 4.1016 53.312 3.97741 53.3488 3.86428ZM56.3747 6.18412C56.4484 6.25591 56.482 6.35937 56.4646 6.46075L55.9789 9.29196L58.5214 7.95525C58.6124 7.90739 58.7212 7.90739 58.8122 7.95525L61.3548 9.29198L60.8693 6.46073C60.852 6.35935 60.8856 6.25593 60.9592 6.18414L63.0161 4.17906L60.1735 3.76595C60.0717 3.75116 59.9837 3.68724 59.9382 3.59501L58.6668 1.01905L57.3955 3.59499C57.35 3.68722 57.262 3.75116 57.1602 3.76595L54.3176 4.17904L56.3747 6.18412Z" fill="#D5D1D1"/>
<path d="M57.1199 3.28238L58.3 1.2173C58.4598 0.937669 58.8647 0.942772 59.0174 1.22634L60.0168 3.08242C60.0715 3.18405 60.1666 3.25792 60.2785 3.28592L62.7507 3.90396C63.0442 3.97732 63.16 4.33223 62.9664 4.56461L61.4475 6.38722C61.3748 6.47449 61.3415 6.58802 61.3556 6.70074L61.6517 9.06953C61.6917 9.38971 61.3635 9.62864 61.0711 9.49218L58.8403 8.45115C58.7304 8.39983 58.6033 8.39983 58.4933 8.45115L56.3139 9.46824C56.0112 9.6095 55.6756 9.34916 55.7371 9.02087L56.1654 6.73672C56.1904 6.60361 56.148 6.46677 56.0523 6.37102L54.2937 4.61247C54.0604 4.37919 54.184 3.97994 54.5082 3.91915L56.8393 3.48206C56.9576 3.45988 57.0602 3.38687 57.1199 3.28238Z" fill="#D5D1D1"/>
</svg>
