<svg width="71" height="52" viewBox="0 0 71 52" fill="none" xmlns="http://www.w3.org/2000/svg">
<path d="M1.72195 51.1413C1.52646 49.838 1.33097 48.2741 1.13548 46.4495C0.939983 44.5597 0.842237 42.5396 0.842237 40.3892C0.842237 32.6347 1.95003 25.4666 4.16561 18.8851C6.44636 12.2383 10.0955 5.98255 15.1132 0.117776L32.512 4.32087C29.9055 9.40368 27.8854 14.7797 26.4518 20.449C25.0833 26.0531 24.3991 32.2763 24.3991 39.1185C24.3991 41.2038 24.4642 43.1913 24.5946 45.081C24.7249 46.9708 24.8878 48.9909 25.0833 51.1413H1.72195ZM39.3543 51.1413C39.1588 49.838 38.9633 48.2741 38.7678 46.4495C38.5723 44.5597 38.4745 42.5396 38.4745 40.3892C38.4745 32.6347 39.5823 25.4666 41.7979 18.8851C44.0787 12.2383 47.6953 5.98255 52.6477 0.117776L70.0466 4.32087C67.44 9.40368 65.4525 14.7797 64.0841 20.449C62.7156 26.0531 62.0314 32.2763 62.0314 39.1185C62.0314 41.2038 62.064 43.1913 62.1291 45.081C62.2595 46.9708 62.4224 48.9909 62.6179 51.1413H39.3543Z" fill="#F6F5EE"/>
</svg>
