<svg width="47" height="47" viewBox="0 0 47 47" fill="none" xmlns="http://www.w3.org/2000/svg">
<path d="M22.0684 2.35981C22.7203 1.2852 24.2797 1.2852 24.9316 2.35981C29.8207 10.4186 36.5814 17.1793 44.6402 22.0684C45.7148 22.7203 45.7148 24.2797 44.6402 24.9316C36.5814 29.8207 29.8207 36.5814 24.9316 44.6402C24.2797 45.7148 22.7203 45.7148 22.0684 44.6402C17.1793 36.5814 10.4186 29.8207 2.35981 24.9316C1.2852 24.2797 1.2852 22.7203 2.35981 22.0684C10.4186 17.1793 17.1793 10.4186 22.0684 2.35981Z" fill="#F6F5EE"/>
<g clip-path="url(#clip0_1884_1570)">
<path fill-rule="evenodd" clip-rule="evenodd" d="M23.5 19C23.7071 19 23.875 19.1679 23.875 19.375L23.875 26.7197L26.2348 24.3599C26.3813 24.2135 26.6187 24.2135 26.7652 24.3599C26.9116 24.5064 26.9116 24.7438 26.7652 24.8903L23.7652 27.8902C23.6187 28.0366 23.3813 28.0366 23.2348 27.8902L20.2348 24.8903C20.0884 24.7438 20.0884 24.5064 20.2348 24.3599C20.3813 24.2135 20.6187 24.2135 20.7652 24.3599L23.125 26.7197L23.125 19.375C23.125 19.1679 23.2929 19 23.5 19Z" fill="black"/>
</g>
<defs>
<clipPath id="clip0_1884_1570">
<rect width="9" height="9" fill="white" transform="translate(19 19)"/>
</clipPath>
</defs>
</svg>
