<svg width="15" height="15" viewBox="0 0 15 15" fill="none" xmlns="http://www.w3.org/2000/svg">
<path fill-rule="evenodd" clip-rule="evenodd" d="M2.97855 8.125C2.66335 8.125 2.39747 8.35971 2.35837 8.67248L2.04587 11.1725C1.99924 11.5455 2.29011 11.875 2.66605 11.875H6.08409C6.46003 11.875 6.7509 11.5455 6.70427 11.1725L6.39177 8.67248C6.35267 8.35971 6.08679 8.125 5.77159 8.125H2.97855ZM1.11803 8.51743C1.23531 7.57913 2.03294 6.875 2.97855 6.875H5.77159C6.7172 6.875 7.51482 7.57913 7.63211 8.51743L7.94461 11.0174C8.0845 12.1365 7.2119 13.125 6.08409 13.125H2.66605C1.53824 13.125 0.665639 12.1365 0.805527 11.0174L1.11803 8.51743Z" fill="white"/>
<path fill-rule="evenodd" clip-rule="evenodd" d="M9.22855 8.125C8.91335 8.125 8.64747 8.35971 8.60837 8.67248L8.29587 11.1725C8.24924 11.5455 8.54011 11.875 8.91605 11.875H12.3341C12.71 11.875 13.0009 11.5455 12.9543 11.1725L12.6418 8.67248C12.6027 8.35971 12.3368 8.125 12.0216 8.125H9.22855ZM7.36803 8.51743C7.48531 7.57913 8.28294 6.875 9.22855 6.875H12.0216C12.9672 6.875 13.7648 7.57913 13.8821 8.51743L14.1946 11.0174C14.3345 12.1365 13.4619 13.125 12.3341 13.125H8.91605C7.78824 13.125 6.91564 12.1365 7.05553 11.0174L7.36803 8.51743Z" fill="white"/>
<path fill-rule="evenodd" clip-rule="evenodd" d="M6.10355 3.125C5.78835 3.125 5.52247 3.35971 5.48337 3.67248L5.17087 6.17248C5.12424 6.54551 5.41511 6.875 5.79105 6.875H9.20909C9.58503 6.875 9.8759 6.54551 9.82927 6.17248L9.51677 3.67248C9.47767 3.35971 9.21179 3.125 8.89659 3.125H6.10355ZM4.24303 3.51743C4.36031 2.57913 5.15794 1.875 6.10355 1.875H8.89659C9.8422 1.875 10.6398 2.57913 10.7571 3.51743L11.0696 6.01743C11.2095 7.13653 10.3369 8.125 9.20909 8.125H5.79105C4.66324 8.125 3.79064 7.13653 3.93053 6.01743L4.24303 3.51743Z" fill="white"/>
</svg>
