<svg width="14" height="15" viewBox="0 0 14 15" fill="none" xmlns="http://www.w3.org/2000/svg">
<g clip-path="url(#clip0_3_998)">
<path fill-rule="evenodd" clip-rule="evenodd" d="M9.47501 12.4498C7.42475 14.5001 4.10064 14.5001 2.05039 12.4498C0.000132631 10.3995 0.000133277 7.07543 2.05039 5.02518L4.11278 2.96278C4.32359 2.75198 4.54786 2.56285 4.78283 2.39539C3.32165 4.44569 3.51077 7.31052 5.35022 9.14997C7.18966 10.9894 10.0545 11.1785 12.1048 9.71736C11.9373 9.95233 11.7482 10.1766 11.5374 10.3874L9.47501 12.4498Z" fill="white" fill-opacity="0.1"/>
<path fill-rule="evenodd" clip-rule="evenodd" d="M10.7123 11.2124C8.66206 13.2626 5.33794 13.2626 3.28769 11.2124C1.23744 9.16212 1.23744 5.838 3.28769 3.78775L4.11265 2.96279C4.25627 2.81917 4.40614 2.68562 4.56138 2.56212C3.12524 4.39334 3.25064 7.05053 4.93761 8.7375L5.76256 9.56246C7.44953 11.2494 10.1067 11.3748 11.9379 9.93868C11.8144 10.0939 11.6809 10.2438 11.5373 10.3874L10.7123 11.2124Z" fill="white" fill-opacity="0.2"/>
<path fill-rule="evenodd" clip-rule="evenodd" d="M5.35014 3.37522C3.7555 4.96986 3.7555 7.55528 5.35014 9.14993C6.94478 10.7446 9.5302 10.7446 11.1248 9.14993C12.7195 7.55529 12.7195 4.96986 11.1248 3.37522C9.5302 1.78058 6.94478 1.78058 5.35014 3.37522ZM4.52518 9.97488C6.57543 12.0251 9.89955 12.0251 11.9498 9.97488C14.0001 7.92463 14.0001 4.60052 11.9498 2.55026C9.89955 0.50001 6.57543 0.50001 4.52518 2.55026C2.47493 4.60051 2.47493 7.92463 4.52518 9.97488ZM7.41253 7.91249C7.18472 8.14029 6.81538 8.14029 6.58757 7.91249C6.35977 7.68468 6.35977 7.31534 6.58757 7.08753L7.97759 5.69752L7.75618 5.71053C7.43457 5.72944 7.15852 5.48406 7.13961 5.16245C7.1207 4.84084 7.36609 4.56479 7.6877 4.54588L9.44069 4.44281C9.60702 4.43303 9.76959 4.49484 9.8874 4.61266C10.0052 4.73047 10.067 4.89305 10.0573 5.05938L9.95418 6.81236C9.93527 7.13397 9.65923 7.37936 9.33762 7.36045C9.016 7.34154 8.77062 7.06549 8.78953 6.74388L8.80254 6.52247L7.41253 7.91249Z" fill="white"/>
</g>
<defs>
<clipPath id="clip0_3_998">
<rect width="14" height="14" fill="white" transform="translate(0 0.5)"/>
</clipPath>
</defs>
</svg>
