<svg width="64" height="11" viewBox="0 0 64 11" fill="none" xmlns="http://www.w3.org/2000/svg">
<path d="M0.0153098 3.8638C0.0520598 3.75065 0.149852 3.66821 0.26756 3.65111L3.57427 3.17059L5.0531 0.174188C5.10575 0.067521 5.21437 0 5.33333 0C5.45227 0 5.56091 0.0675418 5.61356 0.174188L7.09248 3.17061L10.3991 3.65111C10.5168 3.66821 10.6146 3.75067 10.6514 3.8638C10.6881 3.97692 10.6575 4.10111 10.5723 4.18413L8.17964 6.51653L8.74439 9.80993C8.7645 9.92716 8.71629 10.0457 8.62006 10.1156C8.52385 10.1855 8.39631 10.1947 8.29096 10.1393L5.33335 8.58443L2.37583 10.1394C2.3301 10.1634 2.28019 10.1753 2.23044 10.1753C2.16564 10.1753 2.10114 10.1551 2.04673 10.1156C1.9505 10.0457 1.90229 9.92718 1.92239 9.80993L2.48731 6.51653L0.0943929 4.18415C0.00920541 4.10111 -0.021461 3.97692 0.0153098 3.8638ZM3.04121 6.18363C3.11487 6.25542 3.1485 6.35888 3.13108 6.46026L2.64544 9.29147L5.18789 7.95476C5.27894 7.90691 5.38771 7.90691 5.47875 7.95476L8.02135 9.29149L7.53585 6.46024C7.51848 6.35886 7.55208 6.25545 7.62571 6.18365L9.6826 4.17857L6.84 3.76546C6.73821 3.75067 6.65025 3.68675 6.60471 3.59453L5.33335 1.01856L4.06204 3.5945C4.0165 3.68673 3.92854 3.75067 3.82675 3.76546L0.984101 4.17855L3.04121 6.18363Z" fill="white"/>
<path d="M3.78643 3.28189L4.96648 1.21681C5.12627 0.937181 5.53121 0.942284 5.6839 1.22585L6.68332 3.08193C6.73805 3.18356 6.83306 3.25744 6.94504 3.28543L9.4172 3.90347C9.71066 3.97684 9.82651 4.33174 9.63286 4.56412L8.11402 6.38673C8.04129 6.474 8.00801 6.58753 8.0221 6.70026L8.3182 9.06904C8.35822 9.38922 8.03001 9.62815 7.73762 9.4917L5.50683 8.45066C5.39686 8.39934 5.26981 8.39934 5.15984 8.45066L2.98036 9.46776C2.67768 9.60901 2.34208 9.34868 2.40363 9.02038L2.83191 6.73623C2.85687 6.60313 2.81454 6.46628 2.71878 6.37053L0.960234 4.61198C0.72695 4.3787 0.850462 3.97946 1.17472 3.91866L3.50584 3.48157C3.62413 3.45939 3.72672 3.38639 3.78643 3.28189Z" fill="white"/>
<path d="M13.3451 3.8638C13.3819 3.75065 13.4797 3.66821 13.5974 3.65111L16.9041 3.17059L18.3829 0.174188C18.4356 0.067521 18.5442 0 18.6632 0C18.7821 0 18.8907 0.0675418 18.9434 0.174188L20.4223 3.17061L23.729 3.65111C23.8467 3.66821 23.9445 3.75067 23.9812 3.8638C24.018 3.97692 23.9873 4.10111 23.9021 4.18413L21.5095 6.51653L22.0742 9.80993C22.0943 9.92716 22.0461 10.0457 21.9499 10.1156C21.8537 10.1855 21.7261 10.1947 21.6208 10.1393L18.6632 8.58443L15.7057 10.1394C15.6599 10.1634 15.61 10.1753 15.5603 10.1753C15.4955 10.1753 15.431 10.1551 15.3766 10.1156C15.2803 10.0457 15.2321 9.92718 15.2522 9.80993L15.8171 6.51653L13.4242 4.18415C13.339 4.10111 13.3084 3.97692 13.3451 3.8638ZM16.371 6.18363C16.4447 6.25542 16.4783 6.35888 16.4609 6.46026L15.9753 9.29147L18.5177 7.95476C18.6088 7.90691 18.7175 7.90691 18.8086 7.95476L21.3512 9.29149L20.8657 6.46024C20.8483 6.35886 20.8819 6.25545 20.9555 6.18365L23.0124 4.17857L20.1698 3.76546C20.068 3.75067 19.9801 3.68675 19.9345 3.59453L18.6632 1.01856L17.3919 3.5945C17.3463 3.68673 17.2584 3.75067 17.1566 3.76546L14.3139 4.17855L16.371 6.18363Z" fill="white"/>
<path d="M17.1163 3.28189L18.2963 1.21681C18.4561 0.937181 18.861 0.942284 19.0137 1.22585L20.0132 3.08193C20.0679 3.18356 20.1629 3.25744 20.2749 3.28543L22.747 3.90347C23.0405 3.97684 23.1563 4.33174 22.9627 4.56412L21.4439 6.38673C21.3711 6.474 21.3378 6.58753 21.3519 6.70026L21.648 9.06904C21.6881 9.38922 21.3598 9.62815 21.0675 9.4917L18.8367 8.45066C18.7267 8.39934 18.5996 8.39934 18.4897 8.45066L16.3102 9.46776C16.0075 9.60901 15.6719 9.34868 15.7335 9.02038L16.1617 6.73623C16.1867 6.60313 16.1444 6.46628 16.0486 6.37053L14.2901 4.61198C14.0568 4.3787 14.1803 3.97946 14.5046 3.91866L16.8357 3.48157C16.954 3.45939 17.0566 3.38639 17.1163 3.28189Z" fill="white"/>
<path d="M26.6786 3.8638C26.7154 3.75065 26.8132 3.66821 26.9309 3.65111L30.2376 3.17059L31.7164 0.174188C31.7691 0.067521 31.8777 0 31.9967 0C32.1156 0 32.2242 0.0675418 32.2769 0.174188L33.7558 3.17061L37.0625 3.65111C37.1802 3.66821 37.278 3.75067 37.3147 3.8638C37.3515 3.97692 37.3208 4.10111 37.2356 4.18413L34.843 6.51653L35.4077 9.80993C35.4278 9.92716 35.3796 10.0457 35.2834 10.1156C35.1872 10.1855 35.0596 10.1947 34.9543 10.1393L31.9967 8.58443L29.0392 10.1394C28.9934 10.1634 28.9435 10.1753 28.8938 10.1753C28.829 10.1753 28.7645 10.1551 28.7101 10.1156C28.6138 10.0457 28.5656 9.92718 28.5857 9.80993L29.1506 6.51653L26.7577 4.18415C26.6725 4.10111 26.6419 3.97692 26.6786 3.8638ZM29.7045 6.18363C29.7782 6.25542 29.8118 6.35888 29.7944 6.46026L29.3088 9.29147L31.8512 7.95476C31.9423 7.90691 32.051 7.90691 32.1421 7.95476L34.6847 9.29149L34.1992 6.46024C34.1818 6.35886 34.2154 6.25545 34.289 6.18365L36.3459 4.17857L33.5033 3.76546C33.4015 3.75067 33.3136 3.68675 33.268 3.59453L31.9967 1.01856L30.7254 3.5945C30.6798 3.68673 30.5919 3.75067 30.4901 3.76546L27.6474 4.17855L29.7045 6.18363Z" fill="white"/>
<path d="M30.4498 3.28189L31.6298 1.21681C31.7896 0.937181 32.1945 0.942284 32.3472 1.22585L33.3467 3.08193C33.4014 3.18356 33.4964 3.25744 33.6084 3.28543L36.0805 3.90347C36.374 3.97684 36.4898 4.33174 36.2962 4.56412L34.7774 6.38673C34.7046 6.474 34.6713 6.58753 34.6854 6.70026L34.9815 9.06904C35.0216 9.38922 34.6933 9.62815 34.4009 9.4917L32.1702 8.45066C32.0602 8.39934 31.9331 8.39934 31.8232 8.45066L29.6437 9.46776C29.341 9.60901 29.0054 9.34868 29.067 9.02038L29.4952 6.73623C29.5202 6.60313 29.4779 6.46628 29.3821 6.37053L27.6236 4.61198C27.3903 4.3787 27.5138 3.97946 27.8381 3.91866L30.1692 3.48157C30.2875 3.45939 30.3901 3.38639 30.4498 3.28189Z" fill="white"/>
<path d="M40.0153 3.8638C40.0521 3.75065 40.1499 3.66821 40.2676 3.65111L43.5743 3.17059L45.0531 0.174188C45.1057 0.067521 45.2144 0 45.3333 0C45.4523 0 45.5609 0.0675418 45.6136 0.174188L47.0925 3.17061L50.3991 3.65111C50.5168 3.66821 50.6146 3.75067 50.6514 3.8638C50.6881 3.97692 50.6575 4.10111 50.5723 4.18413L48.1796 6.51653L48.7444 9.80993C48.7645 9.92716 48.7163 10.0457 48.6201 10.1156C48.5239 10.1855 48.3963 10.1947 48.291 10.1393L45.3334 8.58443L42.3758 10.1394C42.3301 10.1634 42.2802 10.1753 42.2304 10.1753C42.1656 10.1753 42.1011 10.1551 42.0467 10.1156C41.9505 10.0457 41.9023 9.92718 41.9224 9.80993L42.4873 6.51653L40.0944 4.18415C40.0092 4.10111 39.9785 3.97692 40.0153 3.8638ZM43.0412 6.18363C43.1149 6.25542 43.1485 6.35888 43.1311 6.46026L42.6454 9.29147L45.1879 7.95476C45.2789 7.90691 45.3877 7.90691 45.4787 7.95476L48.0214 9.29149L47.5359 6.46024C47.5185 6.35886 47.5521 6.25545 47.6257 6.18365L49.6826 4.17857L46.84 3.76546C46.7382 3.75067 46.6502 3.68675 46.6047 3.59453L45.3334 1.01856L44.062 3.5945C44.0165 3.68673 43.9285 3.75067 43.8267 3.76546L40.9841 4.17855L43.0412 6.18363Z" fill="white"/>
<path d="M43.7864 3.28189L44.9665 1.21681C45.1263 0.937181 45.5312 0.942284 45.6839 1.22585L46.6833 3.08193C46.738 3.18356 46.8331 3.25744 46.945 3.28543L49.4172 3.90347C49.7107 3.97684 49.8265 4.33174 49.6329 4.56412L48.114 6.38673C48.0413 6.474 48.008 6.58753 48.0221 6.70026L48.3182 9.06904C48.3582 9.38922 48.03 9.62815 47.7376 9.4917L45.5068 8.45066C45.3969 8.39934 45.2698 8.39934 45.1598 8.45066L42.9804 9.46776C42.6777 9.60901 42.3421 9.34868 42.4036 9.02038L42.8319 6.73623C42.8569 6.60313 42.8145 6.46628 42.7188 6.37053L40.9602 4.61198C40.7269 4.3787 40.8505 3.97946 41.1747 3.91866L43.5058 3.48157C43.6241 3.45939 43.7267 3.38639 43.7864 3.28189Z" fill="white"/>
<path d="M53.3488 3.8638C53.3856 3.75065 53.4833 3.66821 53.6011 3.65111L56.9078 3.17059L58.3866 0.174188C58.4392 0.0675209 58.5479 0 58.6668 0C58.7858 0 58.8944 0.0675418 58.9471 0.174188L60.426 3.17061L63.7326 3.65111C63.8503 3.66821 63.9481 3.75067 63.9849 3.8638C64.0216 3.97692 63.991 4.10111 63.9058 4.18413L61.5131 6.51653L62.0779 9.80993C62.098 9.92716 62.0498 10.0457 61.9536 10.1156C61.8573 10.1855 61.7298 10.1947 61.6245 10.1393L58.6668 8.58443L55.7093 10.1394C55.6636 10.1634 55.6137 10.1753 55.5639 10.1753C55.4991 10.1753 55.4346 10.1551 55.3802 10.1156C55.284 10.0457 55.2358 9.92718 55.2559 9.80993L55.8208 6.51653L53.4279 4.18415C53.3427 4.10111 53.312 3.97692 53.3488 3.8638ZM56.3747 6.18363C56.4484 6.25542 56.482 6.35888 56.4646 6.46026L55.9789 9.29147L58.5214 7.95476C58.6124 7.90691 58.7212 7.90691 58.8122 7.95476L61.3548 9.29149L60.8693 6.46024C60.852 6.35886 60.8856 6.25545 60.9592 6.18365L63.0161 4.17857L60.1735 3.76546C60.0717 3.75067 59.9837 3.68675 59.9382 3.59453L58.6668 1.01856L57.3955 3.5945C57.35 3.68673 57.262 3.75067 57.1602 3.76546L54.3176 4.17855L56.3747 6.18363Z" fill="#D5D1D1"/>
<path d="M57.1199 3.28189L58.3 1.21681C58.4598 0.937181 58.8647 0.942284 59.0174 1.22585L60.0168 3.08193C60.0715 3.18356 60.1666 3.25744 60.2785 3.28543L62.7507 3.90347C63.0442 3.97684 63.16 4.33174 62.9664 4.56412L61.4475 6.38673C61.3748 6.474 61.3415 6.58753 61.3556 6.70025L61.6517 9.06904C61.6917 9.38922 61.3635 9.62815 61.0711 9.4917L58.8403 8.45066C58.7304 8.39934 58.6033 8.39934 58.4933 8.45066L56.3139 9.46776C56.0112 9.60901 55.6756 9.34868 55.7371 9.02038L56.1654 6.73623C56.1904 6.60313 56.148 6.46628 56.0523 6.37053L54.2937 4.61198C54.0604 4.3787 54.184 3.97946 54.5082 3.91866L56.8393 3.48157C56.9576 3.45939 57.0602 3.38639 57.1199 3.28189Z" fill="#D5D1D1"/>
</svg>
